<svg xmlns="http://www.w3.org/2000/svg" xmlns:xlink="http://www.w3.org/1999/xlink" version="1.1" id="Layer_1" x="0px" y="0px" viewBox="0 0 512 512" style="enable-background:new 0 0 512 512;" xml:space="preserve">
<style type="text/css">
	.st0{fill:#2f348e;}
	.st1{fill:#2f348e;stroke:#2f348e018000000180000001;stroke-width:10;stroke-miterlimit:10;}
</style>
<path class="st0" d="M53,346.1c0-2.1-0.9-4-2.5-5.3c-1.6-1.4-3.6-1.9-5.7-1.6c-3.3,0.6-5.8,3.7-5.8,7.3l0,110.8  c0,8.7,7.1,15.8,15.8,15.8h111.1c2.1,0,4-0.9,5.3-2.5c1.4-1.6,1.9-3.6,1.6-5.7c-0.6-3.3-3.7-5.8-7.3-5.8h-106  c-3.6,0-6.5-2.9-6.5-6.5L53,346.1z" fill="#2f348e"/>
<path class="st0" d="M165.9,53c2.1,0,4-0.9,5.3-2.5c1.4-1.6,1.9-3.6,1.6-5.7c-0.6-3.3-3.7-5.8-7.3-5.8H54.8C46.1,39,39,46.1,39,54.8  v111.1c0,2.1,0.9,4,2.5,5.3c1.6,1.4,3.6,1.9,5.7,1.6c3.3-0.6,5.8-3.7,5.8-7.3v-106c0-3.6,2.9-6.5,6.5-6.5H165.9z" fill="#2f348e"/>
<path class="st0" d="M459,165.9c0,2.1,0.9,4,2.5,5.3c1.6,1.4,3.6,1.9,5.7,1.6c3.3-0.6,5.8-3.7,5.8-7.3V54.8  c0-8.7-7.1-15.8-15.8-15.8H346.1c-2.1,0-4,0.9-5.3,2.5c-1.4,1.6-1.9,3.6-1.6,5.7c0.6,3.3,3.7,5.8,7.3,5.8h106c3.6,0,6.5,2.9,6.5,6.5  V165.9z" fill="#2f348e"/>
<g>
	<g>
		<g>
			<path class="st1" d="M361,216" fill="#2f348e"/>
		</g>
	</g>
</g>
<g>
	<g>
		<g>
		</g>
	</g>
</g>
<path class="st0" d="M346.1,459c-2.1,0-4,0.9-5.3,2.5c-1.4,1.6-1.9,3.6-1.6,5.7c0.6,3.3,3.7,5.8,7.3,5.8h110.8  c8.7,0,15.8-7.1,15.8-15.8V346.1c0-2.1-0.9-4-2.5-5.3c-1.6-1.4-3.6-1.9-5.7-1.6c-3.3,0.6-5.8,3.7-5.8,7.3v106c0,3.6-2.9,6.5-6.5,6.5  H346.1z" fill="#2f348e"/>
</svg>