<svg xmlns="http://www.w3.org/2000/svg" xmlns:xlink="http://www.w3.org/1999/xlink" version="1.1" id="Layer_1" x="0px" y="0px" width="100%" viewBox="0 0 640 640" enable-background="new 0 0 640 640" xml:space="preserve">
<path fill="#FFFFFF" opacity="0.000000" stroke="none" d=" M426.000000,641.000000   C284.000031,641.000000 142.500046,641.000000 1.000057,641.000000   C1.000038,427.666718 1.000038,214.333466 1.000019,1.000143   C214.333237,1.000095 427.666473,1.000095 640.999756,1.000048   C640.999878,214.333191 640.999878,427.666382 640.999939,640.999756   C569.500000,641.000000 498.000000,641.000000 426.000000,641.000000  M289.836090,521.801941   C290.993225,521.949219 292.155518,522.064209 293.306763,522.248413   C336.727020,529.197937 378.294708,523.307373 417.482300,503.280304   C499.874573,461.173248 542.323120,371.084625 522.756592,280.690552   C498.116455,166.857208 377.711456,97.676750 266.255035,133.313797   C186.696503,158.751816 130.799881,230.988449 126.876556,313.785492   C124.252296,369.167297 141.476898,417.764465 178.458984,458.987457   C208.192902,492.131165 245.407867,512.643372 289.836090,521.801941  z"/>
<path fill="#2f348e" opacity="1.000000" stroke="none" d=" M289.422546,521.695923   C245.407867,512.643372 208.192902,492.131165 178.458984,458.987457   C141.476898,417.764465 124.252296,369.167297 126.876556,313.785492   C130.799881,230.988449 186.696503,158.751816 266.255035,133.313797   C377.711456,97.676750 498.116455,166.857208 522.756592,280.690552   C542.323120,371.084625 499.874573,461.173248 417.482300,503.280304   C378.294708,523.307373 336.727020,529.197937 293.306763,522.248413   C292.155518,522.064209 290.993225,521.949219 289.422546,521.695923  M297.833435,386.814575   C291.644806,381.490936 285.463593,376.158600 279.266083,370.845337   C264.594849,358.267517 249.950699,345.657837 235.223770,333.145538   C228.884232,327.759338 221.286804,327.330597 215.587006,331.756531   C207.188141,338.278229 206.984039,348.746796 215.530853,356.181183   C236.269806,374.220917 257.174988,392.069611 278.021881,409.985199   C286.321594,417.117859 294.644257,424.223846 303.049438,431.421600   C304.182922,430.195160 304.990723,429.369659 305.745026,428.497864   C331.252197,399.018890 356.756134,369.537109 382.256531,340.052277   C404.705292,314.095947 427.204468,288.182892 449.560974,262.147308   C456.083313,254.551620 455.470947,245.391815 448.530151,239.526810   C441.851471,233.883270 432.817108,234.947296 426.448975,242.303375   C402.569397,269.887543 378.736542,297.512146 354.889069,325.124084   C337.466217,345.297272 320.071075,365.494537 302.558990,385.589996   C301.689087,386.588257 299.820404,386.716125 297.833435,386.814575  z"/>
<path fill="#fdfffd" opacity="1.000000" stroke="none" d=" M298.125122,387.031921   C299.820404,386.716125 301.689087,386.588257 302.558990,385.589996   C320.071075,365.494537 337.466217,345.297272 354.889069,325.124084   C378.736542,297.512146 402.569397,269.887543 426.448975,242.303375   C432.817108,234.947296 441.851471,233.883270 448.530151,239.526810   C455.470947,245.391815 456.083313,254.551620 449.560974,262.147308   C427.204468,288.182892 404.705292,314.095947 382.256531,340.052277   C356.756134,369.537109 331.252197,399.018890 305.745026,428.497864   C304.990723,429.369659 304.182922,430.195160 303.049438,431.421600   C294.644257,424.223846 286.321594,417.117859 278.021881,409.985199   C257.174988,392.069611 236.269806,374.220917 215.530853,356.181183   C206.984039,348.746796 207.188141,338.278229 215.587006,331.756531   C221.286804,327.330597 228.884232,327.759338 235.223770,333.145538   C249.950699,345.657837 264.594849,358.267517 279.266083,370.845337   C285.463593,376.158600 291.644806,381.490936 298.125122,387.031921  z"/>
</svg>